# xmcd CD database file
#
# Track frame offsets:
#	182
#	15542
#	29362
#	41732
#	73527
#	89472
#	107800
#	135465
#	168775
#	183577
#
# Disc length: 2988 seconds
#
# Revision: 0
# Processed by: cddbd v1.4PL0 Copyright (c) Steve Scherf et al.
# Submitted via: CDex 1.50beta8
#
DISCID=7e0baa0a
DTITLE=Sidney Bechet - En Concert Avec Europe 1
DYEAR=1993
DGENRE=Jazz
TTITLE0=Moi J'en Ai Marre
TTITLE1=Down By The Old Mill Stream
TTITLE2=Coquin De Boubou
TTITLE3=Royal Garden Blues
TTITLE4=Petite Fleur
TTITLE5=Les Oignons
TTITLE6=Back Home Again In Indiana
TTITLE7=Saint Louis Blues
TTITLE8=All Of Me
TTITLE9=When The Saints Go Marchin' In
EXTD=YEAR: 1993
EXTT0=
EXTT1=
EXTT2=
EXTT3=
EXTT4=
EXTT5=
EXTT6=
EXTT7=
EXTT8=
EXTT9=
PLAYORDER=
